<svg height='100px' width='100px'  fill="#1A1A1A" xmlns="http://www.w3.org/2000/svg" xmlns:xlink="http://www.w3.org/1999/xlink" version="1.1" x="0px" y="0px" viewBox="0 0 1024 1024" style="enable-background:new 0 0 1024 1024;" xml:space="preserve"><g><g><g><g><path d="M214,454.1c4.7-21.7,11.3-43,19.9-63.5c-1.7,4-3.4,8-5,11.9c11.9-28,27.2-54.3,45.8-78.4      c-2.6,3.4-5.2,6.7-7.8,10.1c18.4-23.8,39.7-45.1,63.5-63.6c-3.4,2.6-6.7,5.2-10.1,7.8c23.9-18.4,50.1-33.7,77.9-45.5      c-4,1.7-8,3.4-11.9,5c29.1-12.2,59.6-20.4,90.8-24.6c-4.4,0.6-8.9,1.2-13.3,1.8c30.9-4,62.1-4,92.9,0.1      c-4.4-0.6-8.9-1.2-13.3-1.8c30.9,4.2,61.1,12.6,89.9,24.7c-4-1.7-8-3.4-11.9-5c28,12,54.4,27.4,78.5,46.1      c-3.4-2.6-6.7-5.2-10.1-7.8c23.4,18.3,44.5,39.3,62.7,62.8c-2.6-3.4-5.2-6.7-7.8-10.1c18.5,24,33.8,50.3,45.6,78.2      c-1.7-4-3.4-8-5-11.9c8,19.3,14.4,39.2,19,59.5c2.7,11.9,12.6,23.8,23,29.9c10.7,6.3,26.5,8.9,38.5,5      c26.8-8.7,41.1-34.1,34.9-61.5C884.9,354.3,850,290,801.6,238.4c-46.9-50.1-107.5-87.2-172.8-108      c-67.9-21.6-141.6-23.3-210.9-7.5c-70.3,16.1-136,52.5-187.7,102.5c-50.4,48.8-87.8,111.7-106.9,179.1c-2.2,7.6-4,15.3-5.7,23      c-2.8,13.1-1.9,26.7,5,38.5c6.1,10.4,18,20.3,29.9,23c12.8,2.9,27.2,2.3,38.5-5C201.6,477.2,211.3,466.9,214,454.1L214,454.1z"></path></g></g><g><g><path d="M855.4,277.6c-14.9,42.6-29.8,85.3-44.7,127.9c-2.1,6-4.2,12-6.3,18.1c20.5-11.6,41-23.3,61.5-34.9      c-42.6-14.9-85.3-29.8-127.9-44.7c-6-2.1-12-4.2-18.1-6.3c-11.8-4.1-28.1-1.1-38.5,5c-10.4,6.1-20.3,18-23,29.9      c-2.9,12.8-2.3,27.2,5,38.5c7.3,11.4,17.1,18.5,29.9,23c42.6,14.9,85.3,29.8,127.9,44.7c6,2.1,12,4.2,18.1,6.3      c11.3,3.9,28.6,1.4,38.5-5c11.4-7.3,18.5-17.1,23-29.9c14.9-42.6,29.8-85.3,44.7-127.9c2.1-6,4.2-12,6.3-18.1      c4.1-11.8,1.1-28.1-5-38.5c-6.1-10.4-18-20.3-29.9-23c-12.8-2.9-27.2-2.3-38.5,5C867,255.1,859.8,264.8,855.4,277.6L855.4,277.6      z"></path></g></g></g><g><g><g><path d="M810.3,569.9c-4.7,21.7-11.3,43-19.9,63.5c1.7-4,3.4-8,5-11.9c-11.9,28-27.2,54.3-45.8,78.4      c2.6-3.4,5.2-6.7,7.8-10.1c-18.4,23.8-39.7,45.1-63.5,63.6c3.4-2.6,6.7-5.2,10.1-7.8c-23.9,18.4-50.1,33.7-77.9,45.5      c4-1.7,8-3.4,11.9-5c-29.1,12.2-59.6,20.4-90.8,24.6c4.4-0.6,8.9-1.2,13.3-1.8c-30.9,4-62.1,4-92.9-0.1      c4.4,0.6,8.9,1.2,13.3,1.8c-30.9-4.2-61.1-12.6-89.9-24.7c4,1.7,8,3.4,11.9,5c-28-12-54.4-27.4-78.5-46.1      c3.4,2.6,6.7,5.2,10.1,7.8c-23.4-18.3-44.5-39.3-62.7-62.8c2.6,3.4,5.2,6.7,7.8,10.1c-18.5-24-33.8-50.3-45.6-78.2      c1.7,4,3.4,8,5,11.9c-8-19.3-14.4-39.2-19-59.5c-2.7-11.9-12.6-23.8-23-29.9c-10.7-6.3-26.5-8.9-38.5-5      c-26.8,8.7-41.1,34.1-34.9,61.5c15.6,69.1,50.6,133.4,98.9,185.1c46.9,50.1,107.5,87.2,172.8,108      c67.9,21.6,141.6,23.3,210.9,7.5c70.3-16.1,136-52.5,187.7-102.5c50.4-48.8,87.8-111.7,106.9-179.1c2.2-7.6,4-15.3,5.7-23      c2.8-13.1,1.9-26.7-5-38.5c-6.1-10.4-18-20.3-29.9-23c-12.8-2.9-27.2-2.3-38.5,5C822.7,546.9,813.1,557.2,810.3,569.9      L810.3,569.9z"></path></g></g><g><g><path d="M169,746.4c14.9-42.6,29.8-85.3,44.7-127.9c2.1-6,4.2-12,6.3-18.1c-20.5,11.6-41,23.3-61.5,34.9      c42.6,14.9,85.3,29.8,127.9,44.7c6,2.1,12,4.2,18.1,6.3c11.8,4.1,28.1,1.1,38.5-5c10.4-6.1,20.3-18,23-29.9      c2.9-12.8,2.3-27.2-5-38.5c-7.3-11.4-17.1-18.5-29.9-23c-42.6-14.9-85.3-29.8-127.9-44.7c-6-2.1-12-4.2-18.1-6.3      c-11.3-3.9-28.6-1.4-38.5,5c-11.4,7.3-18.5,17.1-23,29.9c-14.9,42.6-29.8,85.3-44.7,127.9c-2.1,6-4.2,12-6.3,18.1      c-4.1,11.8-1.1,28.1,5,38.5c6.1,10.4,18,20.3,29.9,23c12.8,2.9,27.2,2.3,38.5-5C157.4,769,164.5,759.2,169,746.4L169,746.4z"></path></g></g></g></g></svg>